<svg xmlns="http://www.w3.org/2000/svg" viewBox="0 0 1000 1000" role="img" aria-labelledby="t d"><title id="t">SPY 2026-09-01 orbit</title><desc id="d">Orbit of SPY on 2026-09-01: horizontal is price velocity, vertical is price acceleration, from a centred Savitzky-Golay fit of 11 observations, degree 3, one-minute spacing, 5 observations lost at each edge of each run. 380 observations drawn in time order; the path is not closed. Colour is the note each observation quantised to, thirty degrees of hue per semitone from A. Axes are scaled to this session's own extremes; this is a preview, not a fixed scale.</desc><style>.n0{stroke:#ff8eb9}.n1{stroke:#ffa242}.n2{stroke:#e6b816}.n3{stroke:#66da85}.n4{stroke:#00d8f6}.n5{stroke:#43c9ff}.n6{stroke:#cea4ff}.n7{stroke:#ff8eb9}@supports (color: oklch(0.5 0.1 0)){.n0{stroke:oklch(0.8 0.16 0)}.n1{stroke:oklch(0.8 0.16 60)}.n2{stroke:oklch(0.8 0.16 90)}.n3{stroke:oklch(0.8 0.16 150)}.n4{stroke:oklch(0.8 0.16 210)}.n5{stroke:oklch(0.8 0.16 240)}.n6{stroke:oklch(0.8 0.16 300)}.n7{stroke:oklch(0.8 0.16 0)}}</style><rect width="1000" height="1000" fill="#000"/><g fill="none" stroke-width="1.4" stroke-linecap="round" opacity="0.92"><line class="n1" x1="563.9" y1="833.38" x2="459.48" y2="739.71"/><line class="n1" x1="459.48" y1="739.71" x2="324.03" y2="664.63"/><line class="n1" x1="324.03" y1="664.63" x2="248.0" y2="522.94"/><line class="n1" x1="248.0" y1="522.94" x2="320.54" y2="370.18"/><line class="n1" x1="320.54" y1="370.18" x2="469.6" y2="238.56"/><line class="n1" x1="469.6" y1="238.56" x2="594.61" y2="385.82"/><line class="n1" x1="594.61" y1="385.82" x2="650.58" y2="386.59"/><line class="n1" x1="650.58" y1="386.59" x2="596.26" y2="518.32"/><line class="n1" x1="596.26" y1="518.32" x2="514.12" y2="493.39"/><line class="n1" x1="514.12" y1="493.39" x2="470.11" y2="456.9"/><line class="n1" x1="470.11" y1="456.9" x2="535.13" y2="460.65"/><line class="n1" x1="535.13" y1="460.65" x2="629.85" y2="528.97"/><line class="n1" x1="629.85" y1="528.97" x2="670.25" y2="598.3"/><line class="n1" x1="670.25" y1="598.3" x2="602.16" y2="656.14"/><line class="n1" x1="602.16" y1="656.14" x2="507.44" y2="706.62"/><line class="n1" x1="507.44" y1="706.62" x2="332.66" y2="758.67"/><line class="n1" x1="332.66" y1="758.67" x2="262.17" y2="615.27"/><line class="n1" x1="262.17" y1="615.27" x2="243.93" y2="495.38"/><line class="n1" x1="243.93" y1="495.38" x2="318.48" y2="269.02"/><line class="n1" x1="318.48" y1="269.02" x2="452.65" y2="180.11"/><line class="n1" x1="452.65" y1="180.11" x2="507.77" y2="107.39"/><line class="n1" x1="507.77" y1="107.39" x2="680.85" y2="277.56"/><line class="n1" x1="680.85" y1="277.56" x2="751.34" y2="356.35"/><line class="n1" x1="751.34" y1="356.35" x2="816.53" y2="498.76"/><line class="n1" x1="816.53" y1="498.76" x2="732.9" y2="585.28"/><line class="n2" x1="732.9" y1="585.28" x2="606.75" y2="545.86"/><line class="n2" x1="606.75" y1="545.86" x2="551.56" y2="484.39"/><line class="n2" x1="551.56" y1="484.39" x2="592.39" y2="496.07"/><line class="n2" x1="592.39" y1="496.07" x2="665.54" y2="436.91"/><line class="n2" x1="665.54" y1="436.91" x2="739.05" y2="460.75"/><line class="n2" x1="739.05" y1="460.75" x2="844.12" y2="533.9"/><line class="n2" x1="844.12" y1="533.9" x2="719.3" y2="778.34"/><line class="n2" x1="719.3" y1="778.34" x2="564.3" y2="737.3"/><line class="n2" x1="564.3" y1="737.3" x2="371.9" y2="671.12"/><line class="n2" x1="371.9" y1="671.12" x2="337.23" y2="437.82"/><line class="n2" x1="337.23" y1="437.82" x2="449.48" y2="228.8"/><line class="n2" x1="449.48" y1="228.8" x2="642.85" y2="237.72"/><line class="n2" x1="642.85" y1="237.72" x2="793.25" y2="406.59"/><line class="n2" x1="793.25" y1="406.59" x2="832.32" y2="456.31"/><line class="n2" x1="832.32" y1="456.31" x2="761.42" y2="540.88"/><line class="n3" x1="761.42" y1="540.88" x2="634.1" y2="660.25"/><line class="n3" x1="634.1" y1="660.25" x2="477.32" y2="578.36"/><line class="n3" x1="477.32" y1="578.36" x2="521.21" y2="487.59"/><line class="n3" x1="521.21" y1="487.59" x2="625.46" y2="452.08"/><line class="n3" x1="625.46" y1="452.08" x2="700.84" y2="375.11"/><line class="n3" x1="700.84" y1="375.11" x2="764.76" y2="412.82"/><line class="n3" x1="764.76" y1="412.82" x2="737.13" y2="585.0"/><line class="n3" x1="737.13" y1="585.0" x2="638.41" y2="698.93"/><line class="n3" x1="638.41" y1="698.93" x2="593.19" y2="682.59"/><line class="n3" x1="593.19" y1="682.59" x2="481.78" y2="552.9"/><line class="n3" x1="481.78" y1="552.9" x2="459.56" y2="460.5"/><line class="n3" x1="459.56" y1="460.5" x2="560.14" y2="339.25"/><line class="n3" x1="560.14" y1="339.25" x2="597.23" y2="362.06"/><line class="n3" x1="597.23" y1="362.06" x2="671.89" y2="393.28"/><line class="n4" x1="671.89" y1="393.28" x2="787.67" y2="440.48"/><line class="n4" x1="787.67" y1="440.48" x2="790.06" y2="589.87"/><line class="n4" x1="790.06" y1="589.87" x2="675.04" y2="699.12"/><line class="n4" x1="675.04" y1="699.12" x2="558.92" y2="760.94"/><line class="n4" x1="558.92" y1="760.94" x2="435.09" y2="726.02"/><line class="n4" x1="435.09" y1="726.02" x2="431.05" y2="601.98"/><line class="n4" x1="431.05" y1="601.98" x2="423.15" y2="586.25"/><line class="n4" x1="423.15" y1="586.25" x2="425.64" y2="548.08"/><line class="n4" x1="425.64" y1="548.08" x2="442.84" y2="509.74"/><line class="n4" x1="442.84" y1="509.74" x2="416.37" y2="464.03"/><line class="n4" x1="416.37" y1="464.03" x2="408.17" y2="466.13"/><line class="n4" x1="408.17" y1="466.13" x2="420.82" y2="456.71"/><line class="n4" x1="420.82" y1="456.71" x2="446.36" y2="389.49"/><line class="n4" x1="446.36" y1="389.49" x2="489.97" y2="397.84"/><line class="n4" x1="489.97" y1="397.84" x2="587.5" y2="476.36"/><line class="n4" x1="587.5" y1="476.36" x2="585.54" y2="570.89"/><line class="n4" x1="585.54" y1="570.89" x2="533.48" y2="691.03"/><line class="n4" x1="533.48" y1="691.03" x2="425.01" y2="711.11"/><line class="n4" x1="425.01" y1="711.11" x2="324.2" y2="686.23"/><line class="n3" x1="324.2" y1="686.23" x2="267.0" y2="584.38"/><line class="n3" x1="267.0" y1="584.38" x2="239.12" y2="514.2"/><line class="n3" x1="239.12" y1="514.2" x2="266.0" y2="400.24"/><line class="n3" x1="266.0" y1="400.24" x2="389.28" y2="342.16"/><line class="n3" x1="389.28" y1="342.16" x2="465.4" y2="380.47"/><line class="n3" x1="465.4" y1="380.47" x2="443.47" y2="415.43"/><line class="n3" x1="443.47" y1="415.43" x2="457.65" y2="421.42"/><line class="n3" x1="457.65" y1="421.42" x2="459.73" y2="491.02"/><line class="n3" x1="459.73" y1="491.02" x2="467.08" y2="492.49"/><line class="n3" x1="467.08" y1="492.49" x2="487.54" y2="565.36"/><line class="n3" x1="487.54" y1="565.36" x2="472.85" y2="589.74"/><line class="n3" x1="472.85" y1="589.74" x2="424.67" y2="591.4"/><line class="n3" x1="424.67" y1="591.4" x2="400.89" y2="607.2"/><line class="n3" x1="400.89" y1="607.2" x2="332.49" y2="651.68"/><line class="n3" x1="332.49" y1="651.68" x2="271.83" y2="599.38"/><line class="n3" x1="271.83" y1="599.38" x2="270.1" y2="474.85"/><line class="n2" x1="270.1" y1="474.85" x2="281.85" y2="389.02"/><line class="n2" x1="281.85" y1="389.02" x2="328.48" y2="347.64"/><line class="n2" x1="328.48" y1="347.64" x2="403.5" y2="304.99"/><line class="n2" x1="403.5" y1="304.99" x2="444.85" y2="315.24"/><line class="n2" x1="444.85" y1="315.24" x2="539.48" y2="338.85"/><line class="n2" x1="539.48" y1="338.85" x2="596.19" y2="381.26"/><line class="n2" x1="596.19" y1="381.26" x2="591.31" y2="474.84"/><line class="n2" x1="591.31" y1="474.84" x2="553.02" y2="515.43"/><line class="n2" x1="553.02" y1="515.43" x2="518.31" y2="470.16"/><line class="n2" x1="518.31" y1="470.16" x2="530.32" y2="431.83"/><line class="n2" x1="530.32" y1="431.83" x2="586.67" y2="454.62"/><line class="n2" x1="586.67" y1="454.62" x2="611.67" y2="487.43"/><line class="n2" x1="611.67" y1="487.43" x2="618.28" y2="481.11"/><line class="n3" x1="618.28" y1="481.11" x2="619.48" y2="478.93"/><line class="n3" x1="619.48" y1="478.93" x2="590.86" y2="512.07"/><line class="n3" x1="590.86" y1="512.07" x2="604.41" y2="580.84"/><line class="n3" x1="604.41" y1="580.84" x2="549.41" y2="572.01"/><line class="n3" x1="549.41" y1="572.01" x2="542.71" y2="547.65"/><line class="n3" x1="542.71" y1="547.65" x2="560.24" y2="515.61"/><line class="n3" x1="560.24" y1="515.61" x2="528.18" y2="478.94"/><line class="n3" x1="528.18" y1="478.94" x2="490.21" y2="447.07"/><line class="n3" x1="490.21" y1="447.07" x2="559.9" y2="483.69"/><line class="n3" x1="559.9" y1="483.69" x2="607.01" y2="490.81"/><line class="n3" x1="607.01" y1="490.81" x2="607.89" y2="481.9"/><line class="n3" x1="607.89" y1="481.9" x2="600.8" y2="519.19"/><line class="n3" x1="600.8" y1="519.19" x2="539.71" y2="570.04"/><line class="n3" x1="539.71" y1="570.04" x2="527.86" y2="520.62"/><line class="n3" x1="527.86" y1="520.62" x2="486.32" y2="476.09"/><line class="n3" x1="486.32" y1="476.09" x2="505.39" y2="416.67"/><line class="n3" x1="505.39" y1="416.67" x2="590.79" y2="342.98"/><line class="n3" x1="590.79" y1="342.98" x2="674.04" y2="351.18"/><line class="n3" x1="674.04" y1="351.18" x2="690.67" y2="491.96"/><line class="n3" x1="690.67" y1="491.96" x2="697.85" y2="543.33"/><line class="n3" x1="697.85" y1="543.33" x2="684.56" y2="590.55"/><line class="n4" x1="684.56" y1="590.55" x2="590.42" y2="606.16"/><line class="n4" x1="590.42" y1="606.16" x2="533.82" y2="599.39"/><line class="n4" x1="533.82" y1="599.39" x2="492.27" y2="528.47"/><line class="n4" x1="492.27" y1="528.47" x2="513.43" y2="430.42"/><line class="n4" x1="513.43" y1="430.42" x2="578.88" y2="407.97"/><line class="n4" x1="578.88" y1="407.97" x2="642.06" y2="400.8"/><line class="n4" x1="642.06" y1="400.8" x2="702.43" y2="492.94"/><line class="n4" x1="702.43" y1="492.94" x2="668.12" y2="582.96"/><line class="n4" x1="668.12" y1="582.96" x2="614.87" y2="633.46"/><line class="n4" x1="614.87" y1="633.46" x2="511.26" y2="597.15"/><line class="n4" x1="511.26" y1="597.15" x2="496.11" y2="556.28"/><line class="n4" x1="496.11" y1="556.28" x2="489.28" y2="562.94"/><line class="n4" x1="489.28" y1="562.94" x2="527.23" y2="552.65"/><line class="n4" x1="527.23" y1="552.65" x2="550.9" y2="582.1"/><line class="n4" x1="550.9" y1="582.1" x2="500.09" y2="590.95"/><line class="n4" x1="500.09" y1="590.95" x2="447.61" y2="569.99"/><line class="n4" x1="447.61" y1="569.99" x2="369.05" y2="564.37"/><line class="n4" x1="369.05" y1="564.37" x2="366.74" y2="521.13"/><line class="n4" x1="366.74" y1="521.13" x2="401.88" y2="507.26"/><line class="n4" x1="401.88" y1="507.26" x2="455.14" y2="428.66"/><line class="n4" x1="455.14" y1="428.66" x2="459.27" y2="418.18"/><line class="n4" x1="459.27" y1="418.18" x2="467.86" y2="425.15"/><line class="n4" x1="467.86" y1="425.15" x2="497.79" y2="520.87"/><line class="n4" x1="497.79" y1="520.87" x2="466.03" y2="551.29"/><line class="n4" x1="466.03" y1="551.29" x2="480.3" y2="568.84"/><line class="n4" x1="480.3" y1="568.84" x2="454.71" y2="567.18"/><line class="n4" x1="454.71" y1="567.18" x2="409.49" y2="529.97"/><line class="n4" x1="409.49" y1="529.97" x2="369.92" y2="523.48"/><line class="n4" x1="369.92" y1="523.48" x2="346.6" y2="492.93"/><line class="n3" x1="346.6" y1="492.93" x2="408.55" y2="454.08"/><line class="n3" x1="408.55" y1="454.08" x2="495.8" y2="499.3"/><line class="n3" x1="495.8" y1="499.3" x2="486.54" y2="529.72"/><line class="n3" x1="486.54" y1="529.72" x2="418.92" y2="599.74"/><line class="n3" x1="418.92" y1="599.74" x2="400.24" y2="642.55"/><line class="n3" x1="400.24" y1="642.55" x2="305.1" y2="667.29"/><line class="n3" x1="305.1" y1="667.29" x2="260.43" y2="628.07"/><line class="n3" x1="260.43" y1="628.07" x2="278.63" y2="636.27"/><line class="n3" x1="278.63" y1="636.27" x2="249.09" y2="627.42"/><line class="n3" x1="249.09" y1="627.42" x2="174.31" y2="494.13"/><line class="n2" x1="174.31" y1="494.13" x2="121.28" y2="356.94"/><line class="n2" x1="121.28" y1="356.94" x2="166.17" y2="283.6"/><line class="n2" x1="166.17" y1="283.6" x2="317.32" y2="191.0"/><line class="n2" x1="317.32" y1="191.0" x2="526.91" y2="349.74"/><line class="n2" x1="526.91" y1="349.74" x2="560.24" y2="472.16"/><line class="n2" x1="560.24" y1="472.16" x2="527.38" y2="497.25"/><line class="n2" x1="527.38" y1="497.25" x2="427.62" y2="536.4"/><line class="n2" x1="427.62" y1="536.4" x2="364.11" y2="730.91"/><line class="n2" x1="364.11" y1="730.91" x2="274.75" y2="725.94"/><line class="n2" x1="274.75" y1="725.94" x2="260.14" y2="580.11"/><line class="n2" x1="260.14" y1="580.11" x2="276.82" y2="444.96"/><line class="n2" x1="276.82" y1="444.96" x2="331.66" y2="465.56"/><line class="n2" x1="331.66" y1="465.56" x2="300.39" y2="404.8"/><line class="n1" x1="300.39" y1="404.8" x2="257.58" y2="482.76"/><line class="n1" x1="257.58" y1="482.76" x2="311.68" y2="354.6"/><line class="n1" x1="311.68" y1="354.6" x2="417.26" y2="258.77"/><line class="n1" x1="417.26" y1="258.77" x2="490.0" y2="213.08"/><line class="n1" x1="490.0" y1="213.08" x2="521.71" y2="382.48"/><line class="n1" x1="521.71" y1="382.48" x2="558.42" y2="340.49"/><line class="n1" x1="558.42" y1="340.49" x2="682.15" y2="486.25"/><line class="n1" x1="682.15" y1="486.25" x2="665.89" y2="572.17"/><line class="n1" x1="665.89" y1="572.17" x2="579.01" y2="725.64"/><line class="n1" x1="579.01" y1="725.64" x2="486.94" y2="671.27"/><line class="n1" x1="486.94" y1="671.27" x2="361.68" y2="680.56"/><line class="n1" x1="361.68" y1="680.56" x2="318.05" y2="574.24"/><line class="n1" x1="318.05" y1="574.24" x2="311.02" y2="427.75"/><line class="n1" x1="311.02" y1="427.75" x2="409.91" y2="325.14"/><line class="n1" x1="409.91" y1="325.14" x2="475.07" y2="307.48"/><line class="n1" x1="475.07" y1="307.48" x2="627.88" y2="326.92"/><line class="n1" x1="627.88" y1="326.92" x2="604.99" y2="500.44"/><line class="n1" x1="604.99" y1="500.44" x2="614.59" y2="553.53"/><line class="n1" x1="614.59" y1="553.53" x2="524.15" y2="612.85"/><line class="n1" x1="524.15" y1="612.85" x2="452.81" y2="514.28"/><line class="n1" x1="452.81" y1="514.28" x2="414.72" y2="448.55"/><line class="n1" x1="414.72" y1="448.55" x2="473.17" y2="405.48"/><line class="n1" x1="473.17" y1="405.48" x2="565.99" y2="344.26"/><line class="n1" x1="565.99" y1="344.26" x2="649.49" y2="385.98"/><line class="n1" x1="649.49" y1="385.98" x2="735.27" y2="501.97"/><line class="n2" x1="735.27" y1="501.97" x2="695.87" y2="692.83"/><line class="n2" x1="695.87" y1="692.83" x2="568.49" y2="768.38"/><line class="n2" x1="568.49" y1="768.38" x2="408.79" y2="787.65"/><line class="n2" x1="408.79" y1="787.65" x2="310.4" y2="721.35"/><line class="n1" x1="310.4" y1="721.35" x2="277.94" y2="577.18"/><line class="n1" x1="277.94" y1="577.18" x2="284.1" y2="471.28"/><line class="n1" x1="284.1" y1="471.28" x2="341.93" y2="449.31"/><line class="n1" x1="341.93" y1="449.31" x2="414.02" y2="398.08"/><line class="n1" x1="414.02" y1="398.08" x2="430.53" y2="373.12"/><line class="n1" x1="430.53" y1="373.12" x2="428.23" y2="414.82"/><line class="n1" x1="428.23" y1="414.82" x2="407.9" y2="373.54"/><line class="n1" x1="407.9" y1="373.54" x2="458.63" y2="303.94"/><line class="n1" x1="458.63" y1="303.94" x2="560.37" y2="344.03"/><line class="n1" x1="560.37" y1="344.03" x2="622.85" y2="390.11"/><line class="n1" x1="622.85" y1="390.11" x2="663.54" y2="409.37"/><line class="n1" x1="663.54" y1="409.37" x2="713.2" y2="572.01"/><line class="n1" x1="713.2" y1="572.01" x2="636.12" y2="730.85"/><line class="n1" x1="636.12" y1="730.85" x2="508.73" y2="745.49"/><line class="n1" x1="508.73" y1="745.49" x2="409.73" y2="708.67"/><line class="n1" x1="409.73" y1="708.67" x2="316.19" y2="635.08"/><line class="n1" x1="316.19" y1="635.08" x2="322.42" y2="498.35"/><line class="n1" x1="322.42" y1="498.35" x2="360.41" y2="416.62"/><line class="n1" x1="360.41" y1="416.62" x2="417.37" y2="436.02"/><line class="n1" x1="417.37" y1="436.02" x2="479.86" y2="391.43"/><line class="n1" x1="479.86" y1="391.43" x2="547.55" y2="441.02"/><line class="n1" x1="547.55" y1="441.02" x2="498.52" y2="591.17"/><line class="n1" x1="498.52" y1="591.17" x2="404.76" y2="541.66"/><line class="n1" x1="404.76" y1="541.66" x2="393.09" y2="486.08"/><line class="n1" x1="393.09" y1="486.08" x2="380.68" y2="416.23"/><line class="n1" x1="380.68" y1="416.23" x2="432.22" y2="327.64"/><line class="n1" x1="432.22" y1="327.64" x2="508.6" y2="254.33"/><line class="n1" x1="508.6" y1="254.33" x2="641.4" y2="305.21"/><line class="n1" x1="641.4" y1="305.21" x2="703.73" y2="400.4"/><line class="n1" x1="703.73" y1="400.4" x2="729.19" y2="453.94"/><line class="n1" x1="729.19" y1="453.94" x2="659.87" y2="527.86"/><line class="n1" x1="659.87" y1="527.86" x2="623.66" y2="607.04"/><line class="n1" x1="623.66" y1="607.04" x2="623.42" y2="603.69"/><line class="n1" x1="623.42" y1="603.69" x2="567.15" y2="647.69"/><line class="n1" x1="567.15" y1="647.69" x2="541.04" y2="625.49"/><line class="n1" x1="541.04" y1="625.49" x2="514.71" y2="598.35"/><line class="n1" x1="514.71" y1="598.35" x2="468.68" y2="505.45"/><line class="n1" x1="468.68" y1="505.45" x2="425.31" y2="489.11"/><line class="n1" x1="425.31" y1="489.11" x2="474.69" y2="480.99"/><line class="n1" x1="474.69" y1="480.99" x2="524.12" y2="443.26"/><line class="n1" x1="524.12" y1="443.26" x2="583.76" y2="446.73"/><line class="n1" x1="583.76" y1="446.73" x2="601.51" y2="587.61"/><line class="n1" x1="601.51" y1="587.61" x2="529.75" y2="617.68"/><line class="n1" x1="529.75" y1="617.68" x2="460.54" y2="656.31"/><line class="n1" x1="460.54" y1="656.31" x2="392.47" y2="680.75"/><line class="n1" x1="392.47" y1="680.75" x2="318.75" y2="603.48"/><line class="n1" x1="318.75" y1="603.48" x2="320.78" y2="455.66"/><line class="n1" x1="320.78" y1="455.66" x2="359.59" y2="406.14"/><line class="n1" x1="359.59" y1="406.14" x2="417.32" y2="445.3"/><line class="n1" x1="417.32" y1="445.3" x2="470.16" y2="423.8"/><line class="n1" x1="470.16" y1="423.8" x2="479.93" y2="445.84"/><line class="n1" x1="479.93" y1="445.84" x2="454.28" y2="505.36"/><line class="n1" x1="454.28" y1="505.36" x2="466.47" y2="476.46"/><line class="n1" x1="466.47" y1="476.46" x2="410.67" y2="443.81"/><line class="n1" x1="410.67" y1="443.81" x2="409.96" y2="402.23"/><line class="n1" x1="409.96" y1="402.23" x2="502.32" y2="351.56"/><line class="n1" x1="502.32" y1="351.56" x2="609.25" y2="381.44"/><line class="n1" x1="609.25" y1="381.44" x2="624.52" y2="427.56"/><line class="n1" x1="624.52" y1="427.56" x2="613.97" y2="518.45"/><line class="n1" x1="613.97" y1="518.45" x2="620.73" y2="599.53"/><line class="n1" x1="620.73" y1="599.53" x2="565.77" y2="668.6"/><line class="n1" x1="565.77" y1="668.6" x2="474.24" y2="713.03"/><line class="n1" x1="474.24" y1="713.03" x2="371.86" y2="629.02"/><line class="n1" x1="371.86" y1="629.02" x2="361.15" y2="499.83"/><line class="n1" x1="361.15" y1="499.83" x2="379.52" y2="432.03"/><line class="n1" x1="379.52" y1="432.03" x2="432.67" y2="433.38"/><line class="n1" x1="432.67" y1="433.38" x2="473.87" y2="431.94"/><line class="n1" x1="473.87" y1="431.94" x2="543.48" y2="415.71"/><line class="n1" x1="543.48" y1="415.71" x2="567.73" y2="513.64"/><line class="n1" x1="567.73" y1="513.64" x2="505.43" y2="591.42"/><line class="n1" x1="505.43" y1="591.42" x2="431.4" y2="597.87"/><line class="n1" x1="431.4" y1="597.87" x2="366.36" y2="540.58"/><line class="n1" x1="366.36" y1="540.58" x2="364.27" y2="372.96"/><line class="n1" x1="364.27" y1="372.96" x2="444.13" y2="313.81"/><line class="n1" x1="444.13" y1="313.81" x2="546.49" y2="311.68"/><line class="n1" x1="546.49" y1="311.68" x2="623.09" y2="364.31"/><line class="n1" x1="623.09" y1="364.31" x2="695.15" y2="440.95"/><line class="n1" x1="695.15" y1="440.95" x2="685.71" y2="532.65"/><line class="n1" x1="685.71" y1="532.65" x2="617.03" y2="657.38"/><line class="n1" x1="617.03" y1="657.38" x2="519.94" y2="670.22"/><line class="n1" x1="519.94" y1="670.22" x2="449.54" y2="661.2"/><line class="n1" x1="449.54" y1="661.2" x2="429.18" y2="621.59"/><line class="n1" x1="429.18" y1="621.59" x2="468.69" y2="613.52"/><line class="n1" x1="468.69" y1="613.52" x2="431.62" y2="655.66"/><line class="n1" x1="431.62" y1="655.66" x2="351.9" y2="600.01"/><line class="n1" x1="351.9" y1="600.01" x2="317.87" y2="573.16"/><line class="n1" x1="317.87" y1="573.16" x2="296.4" y2="573.39"/><line class="n1" x1="296.4" y1="573.39" x2="263.99" y2="472.79"/><line class="n1" x1="263.99" y1="472.79" x2="300.57" y2="459.95"/><line class="n1" x1="300.57" y1="459.95" x2="370.06" y2="429.22"/><line class="n1" x1="370.06" y1="429.22" x2="384.18" y2="403.2"/><line class="n1" x1="384.18" y1="403.2" x2="399.24" y2="421.05"/><line class="n1" x1="399.24" y1="421.05" x2="391.92" y2="485.06"/><line class="n1" x1="391.92" y1="485.06" x2="399.26" y2="491.66"/><line class="n1" x1="399.26" y1="491.66" x2="438.6" y2="481.71"/><line class="n1" x1="438.6" y1="481.71" x2="408.77" y2="506.9"/><line class="n1" x1="408.77" y1="506.9" x2="413.75" y2="567.61"/><line class="n1" x1="413.75" y1="567.61" x2="443.86" y2="610.25"/><line class="n1" x1="443.86" y1="610.25" x2="354.12" y2="683.67"/><line class="n0" x1="354.12" y1="683.67" x2="282.35" y2="693.41"/><line class="n0" x1="282.35" y1="693.41" x2="248.28" y2="667.27"/><line class="n0" x1="248.28" y1="667.27" x2="139.5" y2="544.79"/><line class="n0" x1="139.5" y1="544.79" x2="80.0" y2="352.98"/><line class="n0" x1="80.0" y1="352.98" x2="185.67" y2="247.47"/><line class="n0" x1="185.67" y1="247.47" x2="299.49" y2="105.15"/><line class="n0" x1="299.49" y1="105.15" x2="510.79" y2="80.16"/><line class="n0" x1="510.79" y1="80.16" x2="651.83" y2="190.82"/><line class="n0" x1="651.83" y1="190.82" x2="716.17" y2="307.3"/><line class="n0" x1="716.17" y1="307.3" x2="751.92" y2="440.15"/><line class="n0" x1="751.92" y1="440.15" x2="688.07" y2="581.36"/><line class="n0" x1="688.07" y1="581.36" x2="579.97" y2="638.36"/><line class="n0" x1="579.97" y1="638.36" x2="526.48" y2="473.59"/><line class="n0" x1="526.48" y1="473.59" x2="586.55" y2="428.71"/><line class="n0" x1="586.55" y1="428.71" x2="598.23" y2="439.4"/><line class="n0" x1="598.23" y1="439.4" x2="703.96" y2="415.48"/><line class="n0" x1="703.96" y1="415.48" x2="707.09" y2="461.43"/><line class="n0" x1="707.09" y1="461.43" x2="724.28" y2="532.98"/><line class="n1" x1="724.28" y1="532.98" x2="708.89" y2="602.44"/><line class="n1" x1="708.89" y1="602.44" x2="600.95" y2="620.45"/><line class="n1" x1="600.95" y1="620.45" x2="521.44" y2="562.89"/><line class="n1" x1="521.44" y1="562.89" x2="548.69" y2="536.23"/><line class="n1" x1="548.69" y1="536.23" x2="607.62" y2="461.9"/><line class="n1" x1="607.62" y1="461.9" x2="617.99" y2="547.09"/><line class="n1" x1="617.99" y1="547.09" x2="612.51" y2="544.91"/><line class="n1" x1="612.51" y1="544.91" x2="569.03" y2="557.51"/><line class="n1" x1="569.03" y1="557.51" x2="545.03" y2="522.44"/><line class="n1" x1="545.03" y1="522.44" x2="492.61" y2="520.02"/><line class="n1" x1="492.61" y1="520.02" x2="484.77" y2="474.96"/><line class="n1" x1="484.77" y1="474.96" x2="564.31" y2="417.2"/><line class="n1" x1="564.31" y1="417.2" x2="618.17" y2="387.12"/><line class="n1" x1="618.17" y1="387.12" x2="621.74" y2="421.13"/><line class="n1" x1="621.74" y1="421.13" x2="677.33" y2="495.31"/><line class="n1" x1="677.33" y1="495.31" x2="650.49" y2="606.78"/><line class="n1" x1="650.49" y1="606.78" x2="611.23" y2="644.18"/><line class="n1" x1="611.23" y1="644.18" x2="533.92" y2="629.99"/><line class="n1" x1="533.92" y1="629.99" x2="510.97" y2="672.19"/><line class="n1" x1="510.97" y1="672.19" x2="449.63" y2="649.35"/><line class="n1" x1="449.63" y1="649.35" x2="372.59" y2="548.54"/><line class="n1" x1="372.59" y1="548.54" x2="356.44" y2="463.96"/><line class="n1" x1="356.44" y1="463.96" x2="439.96" y2="406.5"/><line class="n1" x1="439.96" y1="406.5" x2="512.01" y2="394.2"/><line class="n1" x1="512.01" y1="394.2" x2="530.95" y2="467.35"/><line class="n1" x1="530.95" y1="467.35" x2="538.07" y2="500.0"/><line class="n1" x1="538.07" y1="500.0" x2="517.01" y2="493.13"/><line class="n1" x1="517.01" y1="493.13" x2="502.32" y2="479.12"/><line class="n1" x1="502.32" y1="479.12" x2="481.05" y2="603.96"/><line class="n1" x1="481.05" y1="603.96" x2="490.41" y2="637.71"/><line class="n1" x1="490.41" y1="637.71" x2="493.54" y2="636.77"/><line class="n1" x1="493.54" y1="636.77" x2="406.64" y2="599.41"/><line class="n1" x1="406.64" y1="599.41" x2="296.76" y2="505.37"/><line class="n1" x1="296.76" y1="505.37" x2="280.49" y2="380.53"/><line class="n1" x1="280.49" y1="380.53" x2="382.1" y2="392.09"/><line class="n1" x1="382.1" y1="392.09" x2="483.29" y2="384.5"/><line class="n1" x1="483.29" y1="384.5" x2="589.67" y2="400.21"/><line class="n1" x1="589.67" y1="400.21" x2="621.13" y2="469.03"/><line class="n1" x1="621.13" y1="469.03" x2="504.93" y2="527.51"/><line class="n1" x1="504.93" y1="527.51" x2="418.17" y2="539.98"/><line class="n1" x1="418.17" y1="539.98" x2="418.3" y2="587.79"/><line class="n1" x1="418.3" y1="587.79" x2="441.26" y2="496.83"/><line class="n1" x1="441.26" y1="496.83" x2="501.2" y2="396.16"/><line class="n1" x1="501.2" y1="396.16" x2="555.22" y2="401.24"/><line class="n1" x1="555.22" y1="401.24" x2="510.91" y2="454.56"/><line class="n1" x1="510.91" y1="454.56" x2="496.52" y2="402.2"/><line class="n1" x1="496.52" y1="402.2" x2="525.52" y2="406.59"/><line class="n1" x1="525.52" y1="406.59" x2="600.93" y2="436.12"/><line class="n1" x1="600.93" y1="436.12" x2="686.97" y2="445.66"/><line class="n1" x1="686.97" y1="445.66" x2="704.09" y2="581.9"/><line class="n1" x1="704.09" y1="581.9" x2="602.03" y2="731.52"/><line class="n1" x1="602.03" y1="731.52" x2="534.73" y2="792.89"/><line class="n1" x1="534.73" y1="792.89" x2="376.5" y2="724.72"/><line class="n1" x1="376.5" y1="724.72" x2="270.24" y2="653.16"/><line class="n1" x1="270.24" y1="653.16" x2="271.82" y2="540.57"/><line class="n1" x1="271.82" y1="540.57" x2="323.77" y2="419.89"/><line class="n1" x1="323.77" y1="419.89" x2="328.73" y2="255.84"/><line class="n1" x1="328.73" y1="255.84" x2="384.25" y2="80.0"/></g><circle cx="563.9" cy="833.38" r="4" fill="#f7f7f5"/><circle cx="384.25" cy="80.0" r="4" fill="none" stroke="#f7f7f5" stroke-width="1.5"/><text x="80" y="960.0" fill="#8a8a92" font-family="Arial, Helvetica, sans-serif" font-size="18" letter-spacing="1">SPY · 2026-09-01 · velocity × acceleration · 380 observations · preview scaling</text></svg>
