<svg xmlns="http://www.w3.org/2000/svg" viewBox="0 0 1000 340" role="img" aria-labelledby="t d"><title id="t">SPY 2026-06-03 hourly line</title><desc id="d">A thin line joins the session open and each hourly bar’s close — eight points across the regular session, positioned by the clock. The last bar covers 15:30 to 16:00 ET. Hourly bars, not a minute path. Gold marks profitable trades and blue losing trades, only between supplied entry and exit times. Color shows the completed trade outcome, not running profit, price direction, or execution quality. Breakeven, unknown outcomes, conflicting overlapping trades, and time outside supplied trades stay neutral. Boundaries clip the displayed line; they do not add price observations. Partial coverage: Webull timed trades; Schwab timing unavailable. Uncoloured time means this record is incomplete there, not that no trading happened.</desc><path d="M24.00,30.00 L170.46,124.75 L316.92,173.54 L463.38,301.52 L609.85,278.71 L756.31,183.44 L902.77,264.75 L976.00,310.00" fill="none" stroke="#81929e" stroke-width="2.6" stroke-linecap="round" stroke-linejoin="round"/><defs><clipPath id="trade-window-1"><rect x="69.8913" y="0" width="1.3426" height="340"/></clipPath></defs><g clip-path="url(#trade-window-1)"><path d="M24.00,30.00 L170.46,124.75 L316.92,173.54 L463.38,301.52 L609.85,278.71 L756.31,183.44 L902.77,264.75 L976.00,310.00" fill="none" stroke="#e5b657" stroke-width="2.6" stroke-linecap="round" stroke-linejoin="round"/></g><defs><clipPath id="trade-window-2"><rect x="71.2338" y="0" width="3.8243" height="340"/></clipPath></defs><g clip-path="url(#trade-window-2)"><path d="M24.00,30.00 L170.46,124.75 L316.92,173.54 L463.38,301.52 L609.85,278.71 L756.31,183.44 L902.77,264.75 L976.00,310.00" fill="none" stroke="#e5b657" stroke-width="2.6" stroke-linecap="round" stroke-linejoin="round"/></g><defs><clipPath id="trade-window-3"><rect x="75.0581" y="0" width="0.2441" height="340"/></clipPath></defs><g clip-path="url(#trade-window-3)"><path d="M24.00,30.00 L170.46,124.75 L316.92,173.54 L463.38,301.52 L609.85,278.71 L756.31,183.44 L902.77,264.75 L976.00,310.00" fill="none" stroke="#e5b657" stroke-width="2.6" stroke-linecap="round" stroke-linejoin="round"/></g><defs><clipPath id="trade-window-5"><rect x="304.7993" y="0" width="10.4964" height="340"/></clipPath></defs><g clip-path="url(#trade-window-5)"><path d="M24.00,30.00 L170.46,124.75 L316.92,173.54 L463.38,301.52 L609.85,278.71 L756.31,183.44 L902.77,264.75 L976.00,310.00" fill="none" stroke="#e5b657" stroke-width="2.6" stroke-linecap="round" stroke-linejoin="round"/></g><defs><clipPath id="trade-window-7"><rect x="484.2961" y="0" width="0.7323" height="340"/></clipPath></defs><g clip-path="url(#trade-window-7)"><path d="M24.00,30.00 L170.46,124.75 L316.92,173.54 L463.38,301.52 L609.85,278.71 L756.31,183.44 L902.77,264.75 L976.00,310.00" fill="none" stroke="#e5b657" stroke-width="2.6" stroke-linecap="round" stroke-linejoin="round"/></g><defs><clipPath id="trade-window-9"><rect x="498.9829" y="0" width="6.4280" height="340"/></clipPath></defs><g clip-path="url(#trade-window-9)"><path d="M24.00,30.00 L170.46,124.75 L316.92,173.54 L463.38,301.52 L609.85,278.71 L756.31,183.44 L902.77,264.75 L976.00,310.00" fill="none" stroke="#e5b657" stroke-width="2.6" stroke-linecap="round" stroke-linejoin="round"/></g></svg>